<svg xmlns="http://www.w3.org/2000/svg"  viewBox="0 0 80 80" width="480px" height="480px"><path d="M 9.3730469 9.984375 C 8.4860469 9.984375 7.649125 10.374734 7.078125 11.052734 C 6.507125 11.730734 6.2679687 12.620141 6.4179688 13.494141 L 15.728516 67.494141 C 15.976516 68.936141 17.220547 69.984375 18.685547 69.984375 L 61.314453 69.984375 C 62.779453 69.984375 64.023484 68.936141 64.271484 67.494141 L 73.582031 13.494141 C 73.733031 12.620141 73.492875 11.730734 72.921875 11.052734 C 72.350875 10.374734 71.513953 9.984375 70.626953 9.984375 L 9.3730469 9.984375 z M 9.3730469 11.984375 L 70.625 11.984375 C 70.925 11.984375 71.196625 12.110844 71.390625 12.339844 C 71.584625 12.568844 71.662328 12.856344 71.611328 13.152344 L 68.875 29.017578 C 68.657127 29.042287 68.44469 29.11781 68.289062 29.273438 C 68.199062 29.373437 68.130078 29.483516 68.080078 29.603516 C 68.020078 29.723516 68 29.854375 68 29.984375 C 68 30.254375 68.099063 30.503359 68.289062 30.693359 C 68.366893 30.77119 68.460914 30.824017 68.556641 30.871094 L 62.300781 67.152344 C 62.217781 67.633344 61.802453 67.982422 61.314453 67.982422 L 18.683594 67.982422 C 18.195594 67.982422 17.782219 67.633344 17.699219 67.152344 L 8.3886719 13.152344 C 8.3386719 12.857344 8.415375 12.568844 8.609375 12.339844 C 8.803375 12.110844 9.0730469 11.984375 9.3730469 11.984375 z M 29.001953 28.982422 C 28.709953 28.982422 28.429234 29.110984 28.240234 29.333984 C 28.049234 29.555984 27.967672 29.851625 28.013672 30.140625 L 31.013672 49.140625 C 31.089672 49.626625 31.508 49.984375 32 49.984375 L 48 49.984375 C 48.492 49.984375 48.910281 49.625625 48.988281 49.140625 L 51.988281 30.140625 C 51.992064 30.11633 51.982389 30.092692 51.984375 30.068359 C 51.986758 30.039457 52 30.013804 52 29.984375 C 52 29.937032 51.978178 29.892563 51.970703 29.845703 C 51.961026 29.777694 51.952948 29.712935 51.929688 29.648438 C 51.924356 29.634001 51.925828 29.61769 51.919922 29.603516 C 51.898009 29.550924 51.857721 29.507735 51.828125 29.458984 C 51.802621 29.418567 51.79319 29.370756 51.761719 29.333984 C 51.755236 29.326375 51.744966 29.323793 51.738281 29.316406 C 51.727228 29.30303 51.722671 29.286474 51.710938 29.273438 C 51.661119 29.223619 51.594702 29.198512 51.535156 29.162109 C 51.48451 29.129119 51.440364 29.089667 51.384766 29.066406 C 51.384766 29.066406 51.382812 29.066406 51.382812 29.066406 C 51.262567 29.016369 51.135015 28.982422 51.001953 28.982422 L 29.001953 28.982422 z M 54.599609 28.984375 C 54.049609 28.984375 53.599609 29.434375 53.599609 29.984375 C 53.599609 30.534375 54.049609 30.984375 54.599609 30.984375 C 55.149609 30.984375 55.599609 30.534375 55.599609 29.984375 C 55.599609 29.434375 55.149609 28.984375 54.599609 28.984375 z M 58.199219 28.984375 C 57.648219 28.984375 57.199219 29.434375 57.199219 29.984375 C 57.199219 30.534375 57.648219 30.984375 58.199219 30.984375 C 58.749219 30.984375 59.199219 30.534375 59.199219 29.984375 C 59.199219 29.434375 58.749219 28.984375 58.199219 28.984375 z M 61.800781 28.984375 C 61.250781 28.984375 60.800781 29.434375 60.800781 29.984375 C 60.800781 30.534375 61.250781 30.984375 61.800781 30.984375 C 62.350781 30.984375 62.800781 30.534375 62.800781 29.984375 C 62.800781 29.434375 62.350781 28.984375 61.800781 28.984375 z M 65.398438 28.984375 C 64.848438 28.984375 64.398438 29.434375 64.398438 29.984375 C 64.398438 30.534375 64.849437 30.984375 65.398438 30.984375 C 65.949438 30.984375 66.398438 30.534375 66.398438 29.984375 C 66.398438 29.434375 65.949438 28.984375 65.398438 28.984375 z M 30.169922 30.984375 L 49.830078 30.984375 L 47.144531 47.984375 L 32.853516 47.984375 L 30.169922 30.984375 z"/></svg>