<?xml version="1.0" encoding="utf-8"?>
<!-- Generator: Adobe Illustrator 22.1.0, SVG Export Plug-In . SVG Version: 6.00 Build 0)  -->
<svg version="1.1" id="Layer_1" xmlns="http://www.w3.org/2000/svg" xmlns:xlink="http://www.w3.org/1999/xlink" x="0px" y="0px"
	 viewBox="0 0 32 32" style="enable-background:new 0 0 32 32;" xml:space="preserve">
<title>leetcode</title>
<path d="M21.5,23.9l-3.6,3.5c-0.6,0.6-1.5,0.9-2.4,0.9S13.6,28,13,27.4l-5.8-5.8c-0.6-0.6-0.9-1.5-0.9-2.5c0-1,0.3-1.8,0.9-2.4
	l5.8-5.8c0.6-0.6,1.5-0.9,2.4-0.9c0.9,0,1.8,0.3,2.4,0.9l3.6,3.5c0.7,0.7,1.8,0.7,2.5-0.1c0.7-0.7,0.7-1.8,0-2.5l-3.5-3.5
	c-0.9-0.9-2-1.5-3.3-1.8l3.3-3.3c0.7-0.7,0.7-1.8,0-2.5S18.7-0.2,18,0.5L4.6,14c-1.3,1.3-2,3.1-2,5.1c0,2,0.7,3.9,2,5.2l5.8,5.8
	c1.3,1.3,3.1,1.9,5.1,1.9c2,0,3.8-0.7,5.1-2l3.5-3.5c0.7-0.7,0.7-1.8-0.1-2.5S22.2,23.2,21.5,23.9L21.5,23.9z M27.7,17.3H14.2
	c-0.9,0-1.7,0.8-1.7,1.8c0,1,0.8,1.8,1.7,1.8h13.5c0.9,0,1.7-0.8,1.7-1.8C29.4,18.2,28.7,17.3,27.7,17.3z"/>
</svg>
