<svg xmlns="http://www.w3.org/2000/svg" xmlns:xlink="http://www.w3.org/1999/xlink" version="1.1" width="256" height="256" viewBox="0 0 256 256" xml:space="preserve">
<desc>Created with Fabric.js 1.7.22</desc>
<defs>
</defs>
<g transform="translate(128 128) scale(0.72 0.72)" style="">
	<g style="stroke: none; stroke-width: 0; stroke-dasharray: none; stroke-linecap: butt; stroke-linejoin: miter; stroke-miterlimit: 10; fill: none; fill-rule: nonzero; opacity: 1;" transform="translate(-175.05 -175.05000000000004) scale(3.89 3.89)" >
	<path d="M 16.263 58.211 v 9.448 c 0 1.98 1.605 3.585 3.585 3.585 h 65.066 c 1.98 0 3.585 -1.605 3.585 -3.585 V 22.341 c 0 -1.98 -1.605 -3.585 -3.585 -3.585 H 19.849 c -1.98 0 -3.585 1.605 -3.585 3.585 v 9.448" style="stroke: none; stroke-width: 1; stroke-dasharray: none; stroke-linecap: butt; stroke-linejoin: miter; stroke-miterlimit: 10; fill: rgb(255,242,77); fill-rule: nonzero; opacity: 1;" transform=" matrix(1 0 0 1 0 0) " stroke-linecap="round" />
	<path d="M 52.382 51.588 c -1.633 0 -3.266 -0.597 -4.567 -1.791 L 24.849 28.728 c -0.61 -0.56 -0.651 -1.509 -0.091 -2.12 c 0.561 -0.609 1.509 -0.651 2.12 -0.091 l 22.964 21.069 c 1.448 1.329 3.631 1.328 5.079 0 l 22.966 -21.069 c 0.61 -0.56 1.56 -0.519 2.119 0.091 c 0.56 0.61 0.519 1.56 -0.092 2.12 L 56.948 49.797 C 55.646 50.991 54.014 51.588 52.382 51.588 z" style="stroke: none; stroke-width: 1; stroke-dasharray: none; stroke-linecap: butt; stroke-linejoin: miter; stroke-miterlimit: 10; fill: rgb(0,0,0); fill-rule: nonzero; opacity: 1;" transform=" matrix(1 0 0 1 0 0) " stroke-linecap="round" />
	<path d="M 25.864 63.997 c -0.406 0 -0.81 -0.163 -1.106 -0.486 c -0.56 -0.61 -0.519 -1.559 0.091 -2.119 l 19.007 -17.437 c 0.61 -0.561 1.559 -0.519 2.12 0.091 c 0.56 0.61 0.519 1.56 -0.091 2.119 L 26.877 63.603 C 26.589 63.866 26.226 63.997 25.864 63.997 z" style="stroke: none; stroke-width: 1; stroke-dasharray: none; stroke-linecap: butt; stroke-linejoin: miter; stroke-miterlimit: 10; fill: rgb(0,0,0); fill-rule: nonzero; opacity: 1;" transform=" matrix(1 0 0 1 0 0) " stroke-linecap="round" />
	<path d="M 78.9 63.997 c -0.362 0 -0.726 -0.131 -1.014 -0.395 L 58.88 46.165 c -0.61 -0.56 -0.651 -1.509 -0.092 -2.119 c 0.561 -0.61 1.509 -0.651 2.119 -0.091 l 19.007 17.437 c 0.61 0.561 0.651 1.509 0.092 2.119 C 79.71 63.834 79.306 63.997 78.9 63.997 z" style="stroke: none; stroke-width: 1; stroke-dasharray: none; stroke-linecap: butt; stroke-linejoin: miter; stroke-miterlimit: 10; fill: rgb(0,0,0); fill-rule: nonzero; opacity: 1;" transform=" matrix(1 0 0 1 0 0) " stroke-linecap="round" />
	<path d="M 19.503 51.8 H 6.8 c -0.829 0 -1.5 -0.672 -1.5 -1.5 s 0.671 -1.5 1.5 -1.5 h 12.703 c 0.829 0 1.5 0.672 1.5 1.5 S 20.332 51.8 19.503 51.8 z" style="stroke: none; stroke-width: 1; stroke-dasharray: none; stroke-linecap: butt; stroke-linejoin: miter; stroke-miterlimit: 10; fill: rgb(0,0,0); fill-rule: nonzero; opacity: 1;" transform=" matrix(1 0 0 1 0 0) " stroke-linecap="round" />
	<path d="M 19.503 41.2 H 1.5 c -0.829 0 -1.5 -0.671 -1.5 -1.5 s 0.671 -1.5 1.5 -1.5 h 18.003 c 0.829 0 1.5 0.671 1.5 1.5 S 20.332 41.2 19.503 41.2 z" style="stroke: none; stroke-width: 1; stroke-dasharray: none; stroke-linecap: butt; stroke-linejoin: miter; stroke-miterlimit: 10; fill: rgb(0,0,0); fill-rule: nonzero; opacity: 1;" transform=" matrix(1 0 0 1 0 0) " stroke-linecap="round" />
	<path d="M 84.915 72.744 H 19.849 c -2.804 0 -5.085 -2.281 -5.085 -5.085 v -9.448 c 0 -0.828 0.671 -1.5 1.5 -1.5 s 1.5 0.672 1.5 1.5 v 9.448 c 0 1.149 0.936 2.085 2.085 2.085 h 65.066 c 1.149 0 2.085 -0.936 2.085 -2.085 V 22.341 c 0 -1.15 -0.936 -2.085 -2.085 -2.085 H 19.849 c -1.15 0 -2.085 0.936 -2.085 2.085 v 9.448 c 0 0.829 -0.671 1.5 -1.5 1.5 s -1.5 -0.671 -1.5 -1.5 v -9.448 c 0 -2.804 2.281 -5.085 5.085 -5.085 h 65.066 c 2.804 0 5.085 2.281 5.085 5.085 v 45.318 C 90 70.463 87.719 72.744 84.915 72.744 z" style="stroke: none; stroke-width: 1; stroke-dasharray: none; stroke-linecap: butt; stroke-linejoin: miter; stroke-miterlimit: 10; fill: rgb(0,0,0); fill-rule: nonzero; opacity: 1;" transform=" matrix(1 0 0 1 0 0) " stroke-linecap="round" />
</g>
</g>
</svg>