<svg xmlns="http://www.w3.org/2000/svg" xmlns:xlink="http://www.w3.org/1999/xlink" version="1.1" width="256" height="256" viewBox="0 0 256 256" xml:space="preserve">
<desc>Created with Fabric.js 1.7.22</desc>
<defs>
</defs>
<g transform="translate(128 128) scale(0.72 0.72)" style="">
	<g style="stroke: none; stroke-width: 0; stroke-dasharray: none; stroke-linecap: butt; stroke-linejoin: miter; stroke-miterlimit: 10; fill: none; fill-rule: nonzero; opacity: 1;" transform="translate(-175.05 -175.05000000000004) scale(3.89 3.89)" >
	<circle cx="57.515" cy="32.655" r="14.855" style="stroke: none; stroke-width: 1; stroke-dasharray: none; stroke-linecap: butt; stroke-linejoin: miter; stroke-miterlimit: 10; fill: rgb(248,204,29); fill-rule: nonzero; opacity: 1;" transform="  matrix(1 0 0 1 0 0) "/>
	<path d="M 51.324 65.142 c -1.561 0 -3.027 -0.607 -4.13 -1.711 L 26.676 42.913 c -1.104 -1.103 -1.711 -2.57 -1.711 -4.13 c 0 -1.56 0.608 -3.027 1.711 -4.13 L 59.511 1.818 c 2.277 -2.277 5.984 -2.277 8.26 0 l 20.518 20.518 C 89.393 23.44 90 24.906 90 26.466 c 0 1.56 -0.607 3.027 -1.711 4.13 L 55.455 63.431 C 54.352 64.535 52.885 65.142 51.324 65.142 z M 63.641 2.125 c -0.98 0 -1.96 0.373 -2.706 1.119 L 28.101 36.078 c -0.723 0.723 -1.121 1.683 -1.121 2.705 c 0 1.022 0.398 1.983 1.121 2.705 l 20.518 20.518 c 1.444 1.446 3.964 1.444 5.411 0 l 32.834 -32.835 c 0.723 -0.723 1.121 -1.684 1.121 -2.705 c 0 -1.022 -0.398 -1.982 -1.121 -2.704 L 66.346 3.243 C 65.6 2.498 64.62 2.125 63.641 2.125 z" style="stroke: none; stroke-width: 1; stroke-dasharray: none; stroke-linecap: butt; stroke-linejoin: miter; stroke-miterlimit: 10; fill: rgb(0,0,0); fill-rule: nonzero; opacity: 1;" transform=" matrix(1 0 0 1 0 0) " stroke-linecap="round" />
	<path d="M 36.177 41.684 c -0.516 0 -0.955 -0.393 -1.003 -0.917 c -0.05 -0.554 0.358 -1.044 0.913 -1.095 l 26.074 -2.368 l 2.369 -26.075 c 0.051 -0.554 0.53 -0.957 1.095 -0.913 c 0.554 0.051 0.962 0.541 0.912 1.095 l -2.445 26.911 c -0.044 0.485 -0.428 0.868 -0.912 0.913 L 36.269 41.68 C 36.238 41.682 36.207 41.684 36.177 41.684 z" style="stroke: none; stroke-width: 1; stroke-dasharray: none; stroke-linecap: butt; stroke-linejoin: miter; stroke-miterlimit: 10; fill: rgb(0,0,0); fill-rule: nonzero; opacity: 1;" transform=" matrix(1 0 0 1 0 0) " stroke-linecap="round" />
	<path d="M 8.769 82.128 c -0.258 0 -0.516 -0.098 -0.712 -0.295 c -0.394 -0.394 -0.394 -1.031 0 -1.425 l 22.232 -22.232 c 0.394 -0.394 1.031 -0.394 1.425 0 c 0.394 0.394 0.394 1.031 0 1.425 L 9.482 81.833 C 9.285 82.029 9.027 82.128 8.769 82.128 z" style="stroke: none; stroke-width: 1; stroke-dasharray: none; stroke-linecap: butt; stroke-linejoin: miter; stroke-miterlimit: 10; fill: rgb(248,204,29); fill-rule: nonzero; opacity: 1;" transform=" matrix(1 0 0 1 0 0) " stroke-linecap="round" />
	<path d="M 15.693 61.167 c -0.258 0 -0.516 -0.098 -0.712 -0.295 c -0.394 -0.394 -0.394 -1.031 0 -1.425 l 8.29 -8.29 c 0.394 -0.394 1.031 -0.394 1.425 0 s 0.394 1.031 0 1.425 l -8.29 8.29 C 16.208 61.069 15.951 61.167 15.693 61.167 z" style="stroke: none; stroke-width: 1; stroke-dasharray: none; stroke-linecap: butt; stroke-linejoin: miter; stroke-miterlimit: 10; fill: rgb(248,204,29); fill-rule: nonzero; opacity: 1;" transform=" matrix(1 0 0 1 0 0) " stroke-linecap="round" />
	<path d="M 5.859 85.449 H 4.441 V 84.03 c 0 -0.557 -0.451 -1.008 -1.008 -1.008 s -1.008 0.451 -1.008 1.008 v 1.419 H 1.008 C 0.451 85.449 0 85.899 0 86.456 c 0 0.557 0.451 1.008 1.008 1.008 h 1.418 v 1.418 c 0 0.557 0.451 1.008 1.008 1.008 s 1.008 -0.451 1.008 -1.008 v -1.418 h 1.418 c 0.556 0 1.008 -0.451 1.008 -1.008 C 6.867 85.899 6.415 85.449 5.859 85.449 z" style="stroke: none; stroke-width: 1; stroke-dasharray: none; stroke-linecap: butt; stroke-linejoin: miter; stroke-miterlimit: 10; fill: rgb(248,204,29); fill-rule: nonzero; opacity: 1;" transform=" matrix(1 0 0 1 0 0) " stroke-linecap="round" />
	<path d="M 9.996 69.366 c -0.938 0 -1.819 -0.365 -2.482 -1.028 c -1.368 -1.368 -1.368 -3.593 0 -4.962 l 0 0 c 0 0 0 0 0 0 l 0 0 c 1.325 -1.325 3.636 -1.327 4.962 0 c 1.368 1.368 1.368 3.594 0 4.962 C 11.815 69.001 10.933 69.366 9.996 69.366 z M 9.996 64.362 c -0.399 0 -0.774 0.155 -1.056 0.438 h 0 c -0.583 0.583 -0.583 1.53 0 2.113 c 0.565 0.565 1.547 0.565 2.112 0 c 0.583 -0.583 0.583 -1.53 0 -2.113 C 10.77 64.518 10.395 64.362 9.996 64.362 z M 8.227 64.088 h 0.01 H 8.227 z" style="stroke: none; stroke-width: 1; stroke-dasharray: none; stroke-linecap: butt; stroke-linejoin: miter; stroke-miterlimit: 10; fill: rgb(248,204,29); fill-rule: nonzero; opacity: 1;" transform=" matrix(1 0 0 1 0 0) " stroke-linecap="round" />
	<path d="M 26.02 79.351 c -0.258 0 -0.516 -0.098 -0.712 -0.295 c -0.394 -0.394 -0.394 -1.031 0 -1.425 l 12.218 -12.218 c 0.394 -0.394 1.031 -0.394 1.425 0 c 0.394 0.394 0.394 1.031 0 1.425 L 26.733 79.056 C 26.536 79.253 26.278 79.351 26.02 79.351 z" style="stroke: none; stroke-width: 1; stroke-dasharray: none; stroke-linecap: butt; stroke-linejoin: miter; stroke-miterlimit: 10; fill: rgb(248,204,29); fill-rule: nonzero; opacity: 1;" transform=" matrix(1 0 0 1 0 0) " stroke-linecap="round" />
	<path d="M 19 88.873 c -0.938 0 -1.819 -0.365 -2.482 -1.028 c -0.662 -0.662 -1.027 -1.543 -1.027 -2.481 c 0 -0.937 0.365 -1.818 1.027 -2.481 l 0 0 c 0 0 0 0 0 0 l 0 0 c 1.325 -1.326 3.637 -1.326 4.962 0 c 0.663 0.662 1.028 1.543 1.028 2.481 c 0 0.938 -0.365 1.818 -1.028 2.481 C 20.818 88.508 19.937 88.873 19 88.873 z M 19 83.87 c -0.399 0 -0.774 0.155 -1.056 0.438 h 0 c -0.282 0.282 -0.437 0.657 -0.437 1.056 c 0 0.399 0.155 0.773 0.437 1.056 c 0.565 0.565 1.548 0.565 2.113 0 c 0.282 -0.282 0.437 -0.657 0.437 -1.056 c 0 -0.399 -0.155 -0.773 -0.437 -1.056 C 19.773 84.026 19.399 83.87 19 83.87 z M 17.231 83.596 h 0.01 H 17.231 z" style="stroke: none; stroke-width: 1; stroke-dasharray: none; stroke-linecap: butt; stroke-linejoin: miter; stroke-miterlimit: 10; fill: rgb(248,204,29); fill-rule: nonzero; opacity: 1;" transform=" matrix(1 0 0 1 0 0) " stroke-linecap="round" />
</g>
</g>
</svg>