<?xml version="1.0" encoding="utf-8"?><!-- Uploaded to: SVG Repo, www.svgrepo.com, Generator: SVG Repo Mixer Tools -->
<svg fill="#000000" width="800px" height="800px" viewBox="0 0 24 24" id="maps-location-place" data-name="Flat Line" xmlns="http://www.w3.org/2000/svg" class="icon flat-line"><path id="secondary" d="M8.5,13S12,10,12,6.5a3.5,3.5,0,0,0-7,0C5,10,8.5,13,8.5,13Z" style="fill: rgb(44, 169, 188); stroke-width: 2;"></path><path id="primary" d="M12,9h8a1,1,0,0,1,1,1V20a1,1,0,0,1-1,1H4a1,1,0,0,1-1-1V10A1,1,0,0,1,4,9H5" style="fill: none; stroke: rgb(0, 0, 0); stroke-linecap: round; stroke-linejoin: round; stroke-width: 2;"></path><path id="primary-2" data-name="primary" d="M13,9l3,8m5,0H3m6,0v4m-.5-8S12,10,12,6.5a3.5,3.5,0,0,0-7,0C5,10,8.5,13,8.5,13Z" style="fill: none; stroke: rgb(0, 0, 0); stroke-linecap: round; stroke-linejoin: round; stroke-width: 2;"></path></svg>