<?xml version="1.0" encoding="iso-8859-1"?>
<!-- Generator: Adobe Illustrator 19.0.0, SVG Export Plug-In . SVG Version: 6.00 Build 0)  -->
<svg version="1.1" id="Layer_1" xmlns="http://www.w3.org/2000/svg" xmlns:xlink="http://www.w3.org/1999/xlink" x="0px" y="0px"
	 viewBox="0 0 512.001 512.001" style="enable-background:new 0 0 512.001 512.001;" xml:space="preserve">
<path style="fill:#515262;" d="M158.978,310.979l-50.065,16.02c-33.535,10.73-52.972,48.319-52.972,83.532v69.461
	c0,13.259,10.749,24.007,24.007,24.007h352.107c13.259,0,24.007-10.748,24.007-24.007v-69.461c0-35.212-19.436-72.802-52.972-83.532
	l-50.064-16.02H158.978z"/>
<polygon style="fill:#D29B6E;" points="191.984,303.938 191.984,279.93 320.022,279.93 320.022,303.938 256.258,343.997 "/>
<path style="fill:#F0C087;" d="M360.111,154.661V183.9c0,61.875-46.555,112.034-103.983,112.034S152.145,245.775,152.145,183.9
	v-16.005c0,0,0.111-48.014,0.111-88.026l207.002-0.875L360.111,154.661z"/>
<path style="fill:#E6AF78;" d="M169.922,156.185v-33.189c0,0-8.906-11.373-13.697-42.854l-3.968-0.271
	c0,40.012-0.111,88.026-0.111,88.026v16.005c0,61.875,46.555,112.034,103.983,112.034c31.509,0,59.743-15.102,78.812-38.951
	c-16.698,12.03-36.577,19.013-57.915,19.013C217.875,275.996,169.922,222.355,169.922,156.185z"/>
<path style="fill:#7D7878;" d="M336.027,17.716c-51.35,9.869-92.093-32.967-136.041,7.896
	c-40.191-14.146-62.834,29.202-62.729,44.382c0.105,15.18,7.27,72.093,14,89.001c6.531-22.463,37.106-55.941,38.912-57.905
	c66.908,21.813,145.857,10.788,145.857,10.788l24.084,42.782C381.54,96.664,376.816,38.557,336.027,17.716z"/>
<polygon style="fill:#D7DEED;" points="280.009,503.998 352.031,319.941 336.027,295.935 256.002,343.95 174.257,296.996 
	160.257,318.996 231.258,502.998 "/>
<g>
	<path style="fill:#65687A;" d="M183.98,503.998l-41.784-55.712c-3.575-4.768-3.101-11.438,1.112-15.65l16.664-16.664
		l-26.538-19.904c-3.391-2.543-5.184-6.688-4.716-10.9l7.247-65.226l21.291-5.945l73.001,189.002L183.98,503.998z"/>
	<path style="fill:#65687A;" d="M328.025,503.998l41.784-55.712c3.575-4.768,3.101-11.438-1.112-15.65l-16.665-16.664l26.538-19.904
		c3.391-2.543,5.185-6.688,4.716-10.9l-7.247-65.226l-21.78-7.945l-73.001,192.002h46.766V503.998z"/>
</g>
<g>
	<path style="fill:#E4EAF6;" d="M183.98,375.959l22.109,22.109c5.122,5.122,13.649,4.277,17.667-1.749l8.238-12.357l2.263-25.965
		l20-15l-78.001-47l-17,22L183.98,375.959z"/>
	<path style="fill:#E4EAF6;" d="M280.009,383.962l8.238,12.357c4.018,6.026,12.545,6.871,17.667,1.749l22.109-22.109l24.234-54.963
		l-17-24l-76.001,45L280.009,383.962z"/>
</g>
<polygon style="fill:#5B5D6E;" points="272.007,399.966 288.012,479.991 277.258,503.998 232.258,504.998 223.993,479.991 
	239.998,399.966 "/>
<path style="fill:#65687A;" d="M280.009,383.867c0,8.803-7.202,16.005-16.005,16.005H248c-8.803,0-16.005-7.202-16.005-16.005
	v-16.005c0-8.803,7.202-16.004,16.005-16.004h16.005c8.803,0,16.005,7.201,16.005,16.004v16.005H280.009z"/>
<g>
	<path style="fill:#515262;" d="M219.879,207.907h-15.78c-9.365,0-16.742-4.751-20.368-13.373l-7.642-17.32
		c-0.813-4.878,2.949-9.318,7.894-9.318h48.01c4.945,0,8.707,4.44,7.894,9.318l-4.221,17.32
		C234.38,202.251,227.703,207.907,219.879,207.907z"/>
	<path style="fill:#515262;" d="M292.126,207.907h15.78c9.365,0,16.742-4.751,20.368-13.373l7.642-17.32
		c0.813-4.878-2.949-9.318-7.894-9.318h-48.01c-4.945,0-8.707,4.44-7.894,9.318l4.221,17.32
		C277.625,202.251,284.301,207.907,292.126,207.907z"/>
</g>
<path style="fill:#2D2B29;" d="M449.021,355.48c-10.728-17.946-25.767-30.429-43.49-36.1l-50.064-16.02
	c-1.647-0.529-3.339-0.486-4.871,0.005l-7.911-11.867c-2.369-3.553-7.109-4.619-10.772-2.423l-3.889,2.333v-11.478
	c0-1.213-0.278-2.358-0.761-3.389c24.931-22.033,40.851-55.382,40.851-92.641v-27.862c11.025-30.401,14.895-59.724,11.161-84.878
	c-4.203-28.314-17.822-49.213-39.389-60.451c-0.02-0.011-0.04-0.021-0.06-0.032c-0.041-0.021-0.08-0.043-0.121-0.064
	c-0.069-0.035-0.14-0.062-0.209-0.096c-0.146-0.07-0.293-0.141-0.444-0.202c-0.107-0.044-0.215-0.081-0.324-0.12
	c-0.136-0.049-0.272-0.098-0.411-0.14c-0.123-0.036-0.247-0.067-0.371-0.099c-0.126-0.031-0.253-0.063-0.381-0.087
	c-0.137-0.026-0.273-0.047-0.41-0.066c-0.119-0.018-0.237-0.034-0.356-0.046c-0.148-0.014-0.296-0.021-0.444-0.027
	c-0.111-0.004-0.222-0.01-0.333-0.01c-0.16,0-0.319,0.009-0.479,0.019c-0.101,0.007-0.201,0.011-0.302,0.021
	c-0.173,0.018-0.345,0.044-0.517,0.072c-0.069,0.012-0.137,0.017-0.206,0.029c-18.681,3.589-36.304-0.415-53.347-4.288
	c-27.068-6.153-55.038-12.493-84.376,12.233c-1.595-0.117-3.198-0.194-4.812-0.194c-34.665,0-62.964,27.375-63.97,61.397
	c-0.03,0.283-0.048,0.57-0.048,0.861c0,0.234,0.007,0.471,0.008,0.705c0,0.101-0.008,0.199-0.008,0.301
	c0,0.094,0.011,0.186,0.014,0.279c0.3,37.381,13.561,80.009,16.166,88.025V183.9c0,37.171,15.845,70.448,40.674,92.482
	c-0.531,1.07-0.837,2.271-0.837,3.547v11.478l-3.889-2.333c-3.662-2.195-8.403-1.13-10.772,2.423l-7.911,11.866
	c-1.531-0.49-3.223-0.532-4.871-0.004l-50.065,16.02c-17.723,5.671-32.762,18.153-43.49,36.1
	c-9.701,16.227-15.043,35.777-15.043,55.052v69.461c0,17.648,14.358,32.007,32.007,32.007H231.97c0.009,0,0.017,0.002,0.026,0.002
	c0.014,0,0.028-0.002,0.042-0.002h47.925c0.014,0,0.028,0.002,0.042,0.002c0.009,0,0.017-0.002,0.026-0.002h152.022
	c17.649,0,32.007-14.358,32.007-32.007v-69.461C464.064,391.257,458.721,371.706,449.021,355.48z M375.335,386.05
	c0.155,1.392-0.445,2.777-1.565,3.617l-26.538,19.903c-1.855,1.392-3.016,3.52-3.18,5.833c-0.164,2.313,0.683,4.584,2.323,6.225
	l16.664,16.663c1.389,1.39,1.548,3.623,0.37,5.195l-39.383,52.512h-32.294l67.751-173.142c0.166-0.423,0.28-0.857,0.371-1.295
	l8.624,2.76L375.335,386.05z M237.455,495.998l-5.63-14.388c0.003-0.017,0.009-0.032,0.012-0.05l14.747-73.733
	c0.469,0.027,0.94,0.045,1.416,0.045h16.005c0.476,0,0.947-0.018,1.416-0.045l14.747,73.733c0.003,0.017,0.009,0.033,0.012,0.05
	l-5.63,14.388H237.455z M187.98,495.998l-39.383-52.512c-1.179-1.572-1.021-3.806,0.369-5.194l16.664-16.664
	c1.64-1.641,2.487-3.911,2.323-6.225c-0.165-2.313-1.325-4.441-3.18-5.833l-26.538-19.902c-1.12-0.841-1.72-2.227-1.565-3.618
	l6.858-61.729l8.624-2.76c0.091,0.438,0.205,0.872,0.371,1.295l67.751,173.142L187.98,495.998L187.98,495.998z M248,359.858h16.005
	c4.414,0,8.005,3.591,8.005,8.004v16.005c0,4.414-3.591,8.005-8.005,8.005h-16.004c-4.414,0-8.005-3.591-8.005-8.005v-16.005
	C239.995,363.449,243.586,359.858,248,359.858z M290.977,454.02l-10.536-52.681c0.317-0.298,0.625-0.605,0.926-0.92l0.226,0.338
	c3.25,4.875,8.458,8.002,14.288,8.579c0.649,0.063,1.296,0.096,1.94,0.096c4.508,0,8.85-1.558,12.332-4.42L290.977,454.02z
	 M230.413,400.757l0.226-0.338c0.3,0.314,0.609,0.622,0.926,0.92l-10.536,52.681l-19.177-49.007c3.483,2.863,7.824,4.42,12.333,4.42
	c0.644,0,1.292-0.032,1.94-0.096C221.955,408.759,227.163,405.632,230.413,400.757z M333.602,306.719l9.46,14.19l-18.771,47.973
	c-0.691,0.364-1.341,0.837-1.923,1.419l-22.109,22.109c-1.013,1.014-2.19,1.068-2.802,1.002c-0.612-0.061-1.757-0.34-2.552-1.531
	l-6.895-10.342v-13.678c0-11.057-7.518-20.388-17.71-23.16L333.602,306.719z M143.971,80.678
	c0.109-25.97,21.603-47.065,48.012-47.065c6.425,0,12.656,1.226,18.52,3.642c4.084,1.685,8.762-0.264,10.444-4.349
	c1.574-3.819-0.027-8.155-3.582-10.079c19.34-10.936,37.845-6.745,60.258-1.651c16.988,3.86,36.145,8.195,56.987,4.893
	c19.628,11.369,26.531,31.919,28.835,47.442c2.664,17.951,0.757,39.244-5.335,61.29l-15.113-26.846
	c-1.613-2.865-4.819-4.452-8.076-3.999c-0.886,0.125-89.415,12.011-155.888-15.473c-4.083-1.69-8.761,0.254-10.45,4.336
	c-1.688,4.083,0.253,8.762,4.336,10.449c61.531,25.439,137.753,19.484,158.757,17.194l20.433,36.297v3.141
	c-0.027,0-0.053-0.004-0.08-0.004H328.02h-48.01c-4.713,0-9.164,2.063-12.21,5.659c-0.622,0.734-1.152,1.525-1.625,2.344h-20.347
	c-0.474-0.818-1.003-1.609-1.625-2.344c-3.046-3.597-7.497-5.659-12.21-5.659h-48.01h-21.746
	c5.172-20.187,18.191-34.363,18.345-34.528c3.03-3.216,2.878-8.279-0.338-11.309c-3.217-3.031-8.28-2.879-11.309,0.338
	c-0.61,0.647-9.476,10.217-16.433,25.32C148.411,123.034,144.085,100.73,143.971,80.678z M327.753,175.898l-6.797,15.406
	c-0.019,0.043-0.037,0.085-0.055,0.128c-2.365,5.623-6.736,8.475-12.994,8.475h-15.78c-3.929,0-7.25-2.813-7.896-6.688
	c-0.032-0.194-0.072-0.387-0.119-0.579l-4.08-16.744L327.753,175.898z M231.973,175.898l-4.08,16.741
	c-0.047,0.192-0.086,0.385-0.119,0.579c-0.646,3.876-3.967,6.688-7.896,6.688h-15.78c-6.257,0-10.629-2.852-12.994-8.475
	c-0.018-0.043-0.037-0.085-0.055-0.128l-6.798-15.409L231.973,175.898z M160.146,183.9v-8.002v-0.003h7.856
	c0,0.876,0.049,1.756,0.195,2.634c0.11,0.659,0.302,1.302,0.572,1.914l7.615,17.26c4.895,11.569,14.992,18.204,27.714,18.204h15.78
	c11.674,0,21.558-8.282,23.623-19.738l2.99-12.271h19.021l2.99,12.271c2.065,11.457,11.948,19.738,23.622,19.738h15.78
	c12.723,0,22.819-6.633,27.713-18.203l7.616-17.261c0.27-0.612,0.462-1.255,0.572-1.914c0.146-0.878,0.195-1.758,0.195-2.634h8.029
	c0.027,0,0.053-0.004,0.08-0.004v8.009c0,57.365-43.057,104.034-95.983,104.034S160.146,241.266,160.146,183.9z M199.984,287.724
	c16.516,10.302,35.698,16.211,56.146,16.211c20.342,0,39.434-5.847,55.894-16.051v13.124l-56.02,33.611l-56.02-33.611V287.724z
	 M178.402,306.719l63.302,37.982c-10.191,2.773-17.709,12.104-17.709,23.16v13.678l-6.895,10.342
	c-0.794,1.191-1.94,1.471-2.552,1.531c-0.611,0.066-1.789,0.012-2.802-1.002l-22.109-22.109c-0.582-0.582-1.231-1.055-1.923-1.419
	l-18.772-47.973L178.402,306.719z M63.941,479.991V410.53c0-30.185,16.285-65.954,47.409-75.913l15.486-4.955l-6.069,54.62
	c-0.777,6.994,2.237,13.962,7.867,18.186l19.159,14.368l-10.142,10.143c-6.982,6.982-7.78,18.207-1.855,26.107l32.184,42.911H79.948
	C71.122,495.998,63.941,488.818,63.941,479.991z M448.064,479.991c0,8.826-7.181,16.007-16.007,16.007h-88.032l32.185-42.912
	c5.924-7.9,5.126-19.124-1.856-26.107l-10.142-10.142l19.159-14.368c5.63-4.223,8.645-11.191,7.868-18.186l-6.069-54.62
	l15.485,4.955c31.125,9.959,47.409,45.728,47.409,75.913v69.461H448.064z"/>
<g>
</g>
<g>
</g>
<g>
</g>
<g>
</g>
<g>
</g>
<g>
</g>
<g>
</g>
<g>
</g>
<g>
</g>
<g>
</g>
<g>
</g>
<g>
</g>
<g>
</g>
<g>
</g>
<g>
</g>
</svg>
